<svg id="Capa_1" enable-background="new 0 0 512 512" height="512" viewBox="0 0 512 512" width="512" xmlns="http://www.w3.org/2000/svg"><g><g><path d="m512 256c0 141.387-114.613 256-256 256s-256-114.613-256-256 114.613-256 256-256 256 114.613 256 256zm0 0" fill="#ff9850"/><path d="m512 256c0 26.051-3.891 51.191-11.129 74.871-5.031 16.469-11.672 32.231-19.75 47.109-8.25 15.2-18 29.461-29.051 42.61-.582.691-1.16 1.379-1.75 2.058-46.941 54.704-116.59 89.352-194.32 89.352s-147.379-34.648-194.309-89.352c-.589-.687-1.179-1.378-1.75-2.07-11.062-13.137-20.812-27.398-29.05-42.598-3.289-6.031-6.332-12.21-9.121-18.531-14-31.629-21.77-66.629-21.77-103.449 0-46.219 12.25-89.57 33.68-127 44.121 77.07 127.16 129 222.32 129s178.211-51.93 222.32-129c21.43 37.43 33.68 80.781 33.68 127zm0 0" fill="#ff7a3c"/><path d="m481.262 377.699c-7.16 13.223-15.434 25.742-24.723 37.43-8.437 10.633-17.719 20.57-27.719 29.723-45.539 41.699-106.211 67.148-172.82 67.148s-127.281-25.449-172.82-67.148c-10-9.153-19.282-19.09-27.719-29.723-9.289-11.688-17.563-24.207-24.723-37.43zm0 0" fill="#303a59"/></g><g><path d="m256.003 186.422h95.639v69.072h-95.639z" fill="#c5bdb0"/><path d="m160.364 186.422h95.639v69.072h-95.639z" fill="#e2d8c8"/><path d="m131.791 234.241h124.212v69.072h-124.212z" fill="#c5bdb0"/><path d="m256.003 234.241h124.212v69.072h-124.212z" fill="#a8a297"/><path d="m103.217 282.06h152.786v69.072h-152.786z" fill="#e2d8c8"/><path d="m256.003 282.06h152.786v69.072h-152.786z" fill="#c5bdb0"/><path d="m437.362 329.88h-181.359l53.133 47.819h128.226z" fill="#a8a297"/><path d="m74.644 329.88v47.819h128.227l53.132-47.819z" fill="#c5bdb0"/><path d="m309.136 186.422v-63.76h-53.133l-42.506 92.097z" fill="#e2d8c8"/><path d="m256.003 122.662h-53.132v63.76l53.132 28.337z" fill="#fff3e0"/><path d="m229.437 122.662h-26.566v63.76l26.566 28.337z" fill="#fffaf2"/><path d="m266.63 165.169h-10.627l-7.084 31.879h17.711z" fill="#353535"/><path d="m245.377 165.169h10.627v31.88h-10.627z" fill="#52504d"/><path d="m256.003 186.422-21.253 95.638 21.253 95.639h53.133v-191.277z" fill="#8c877f"/><path d="m202.871 186.422h53.133v191.277h-53.133z" fill="#a8a297"/><path d="m202.871 186.422h26.566v191.277h-26.566z" fill="#bdb6a9"/></g><g fill="#fff"><path d="m274.11 53.519h-1.524c-6.754 0-12.226-5.477-12.226-12.227v-1.523h-8.715v1.523c0 6.75-5.477 12.227-12.227 12.227h-1.527v8.715h1.527c6.75 0 12.227 5.472 12.227 12.226v1.528h8.715v-1.528c0-6.754 5.472-12.226 12.226-12.226h1.524zm0 0"/><g><path d="m403.749 142.748h-1.524c-6.754 0-12.226-5.477-12.226-12.227v-1.523h-8.715v1.523c0 6.75-5.477 12.227-12.227 12.227h-1.527v8.715h1.527c6.75 0 12.227 5.472 12.227 12.226v1.528h8.715v-1.528c0-6.754 5.472-12.226 12.226-12.226h1.524zm0 0"/><path d="m144.476 142.748h-1.524c-6.754 0-12.226-5.477-12.226-12.227v-1.523h-8.715v1.523c0 6.75-5.477 12.227-12.227 12.227h-1.527v8.715h1.527c6.75 0 12.227 5.472 12.227 12.226v1.528h8.715v-1.528c0-6.754 5.472-12.226 12.226-12.226h1.524zm0 0"/></g></g></g></svg>