<svg id="Icons" enable-background="new 0 0 512 512" height="512" viewBox="0 0 512 512" width="512" xmlns="http://www.w3.org/2000/svg"><g><g><circle cx="256" cy="256" fill="#b82065" r="255.984"/><path d="m512 255.76c-.13-78.115-35.898-155.18-103.444-205.317-113.532-84.255-273.862-60.526-358.117 52.997-30.538 41.147-46.897 88.444-49.927 136.041 4.96 1.8 9.729 4.09 14.239 6.88 23.839 14.739 41.987 41.897 69.906 44.437 19.149 1.75 37.298-9.239 51.107-22.619 13.809-13.399 24.868-29.508 39.397-42.117 22.039-19.139 51.767-29.168 80.905-27.318s57.346 15.569 76.795 37.348c14.169 15.889 26.528 37.438 47.677 39.977 28.748 3.44 51.217-31.628 80.045-28.948 9.299.87 17.719 5.66 26.728 8.04 8.11 2.159 16.529 2.219 24.689.599z" fill="#d7156f"/></g><g><g><path d="m273.085 435.622h-33.735c-.495 0-.981-.034-1.45-.102-5.621-.853-9.417-6.517-7.754-12.18l13.468-46.103h25.214l3.574 12.24 9.895 33.863c1.791 6.141-2.815 12.282-9.212 12.282z" fill="#098955"/><path d="m273.085 435.622h-33.735c-.495 0-.981-.034-1.45-.102l11.038-37.783c1.43-4.895 5.919-8.26 11.019-8.26h12.446l9.895 33.863c1.79 6.141-2.816 12.282-9.213 12.282z" fill="#14a36d"/></g><g><g><path d="m282.736 277.966-26.736 26.736-26.736-26.736c-56.394-56.394-56.394-147.829 0-204.223l26.736-26.725 14.325 14.315 12.411 12.411c56.394 56.393 56.394 147.828 0 204.222z" fill="#51c441"/><path d="m282.736 277.966-1.719 1.719-2.048-1.317c-67.086-43.109-86.526-132.454-43.417-199.551l20.448-31.799 14.325 14.315 12.411 12.411c56.394 56.393 56.394 147.828 0 204.222z" fill="#65e856"/><ellipse cx="276.587" cy="106.773" fill="#92f784" rx="15.178" ry="25.916" transform="matrix(.968 -.251 .251 .968 -17.941 72.805)"/></g><g><path d="m264.112 315.627-6.611 24.659-1.501 5.612-30.272-8.112c-63.845-17.111-101.742-82.738-84.632-146.591l8.112-30.272 20.949 5.613 9.323 2.499c63.845 17.111 101.742 82.738 84.632 146.592z" fill="#65e856"/><path d="m264.112 315.627-6.611 24.659-9.314-2.499c-63.853-17.111-101.742-82.738-84.632-146.591l6.602-24.659 9.323 2.499c63.845 17.11 101.742 82.737 84.632 146.591z" fill="#92f784"/><ellipse cx="207.548" cy="209.815" fill="#cfffc7" rx="14.643" ry="27.245" transform="matrix(.625 -.781 .781 .625 -85.963 240.635)"/></g><g><path d="m247.888 315.629 6.611 24.659 1.501 5.612 30.272-8.112c63.845-17.111 101.742-82.738 84.632-146.591l-8.112-30.272-20.949 5.613-9.323 2.499c-63.845 17.111-101.743 82.739-84.632 146.592z" fill="#51c441"/><path d="m247.888 315.629 6.611 24.659 9.314-2.499c63.853-17.111 101.742-82.738 84.632-146.591l-6.602-24.659-9.323 2.499c-63.845 17.11-101.743 82.738-84.632 146.591z" fill="#65e856"/><ellipse cx="304.452" cy="209.817" fill="#92f784" rx="27.245" ry="14.643" transform="matrix(.781 -.625 .625 .781 -64.341 236.39)"/></g><g><path d="m278.16 323.738-22.16 22.16-22.16-22.16c-46.743-46.743-46.743-122.529 0-169.272l22.16-22.151 11.873 11.865 10.287 10.287c46.743 46.742 46.743 122.529 0 169.271z" fill="#65e856"/><path d="m278.16 323.738-1.424 1.424-1.697-1.092c-55.605-35.731-71.718-109.786-35.987-165.399l16.948-26.356 11.873 11.865 10.287 10.287c46.743 46.742 46.743 122.529 0 169.271z" fill="#92f784"/><ellipse cx="273.064" cy="181.843" fill="#cfffc7" rx="12.58" ry="21.481" transform="matrix(.968 -.251 .251 .968 -36.888 74.321)"/></g><g><path d="m256 345.898v31.338h-31.338c-66.105 0-119.689-53.592-119.689-119.689v-31.337h31.338c66.105 0 119.689 53.583 119.689 119.688z" fill="#098955"/><path d="m256 345.898v31.338h-9.221c-66.105 0-119.689-53.592-119.689-119.689v-31.337h9.22c66.106 0 119.69 53.583 119.69 119.688z" fill="#14a36d"/><g fill="#15be79"><ellipse cx="176.323" cy="263.364" rx="16.973" ry="30.607" transform="matrix(.566 -.825 .825 .566 -140.596 259.721)"/><ellipse cx="216.985" cy="308.788" rx="9.382" ry="22.04" transform="matrix(.866 -.5 .5 .866 -125.323 149.862)"/></g></g><g><path d="m256 345.898v31.338h31.338c66.105 0 119.689-53.592 119.689-119.689v-31.337h-31.338c-66.105 0-119.689 53.583-119.689 119.688z" fill="#14a36d"/><path d="m256 345.898v31.338h9.221c66.105 0 119.689-53.592 119.689-119.689v-31.337h-9.22c-66.106 0-119.69 53.583-119.69 119.688z" fill="#15be79"/><g fill="#27e090"><ellipse cx="335.677" cy="263.364" rx="30.607" ry="16.973" transform="matrix(.825 -.566 .566 .825 -90.116 236.159)"/><ellipse cx="295.015" cy="308.788" rx="22.04" ry="9.382" transform="matrix(.5 -.866 .866 .5 -119.911 409.884)"/></g></g></g></g></g></svg>